# xmcd
#
# Track frame offsets:
#	150
#	13747
#	30430
#	45559
#	60459
#	74561
#	87243
#	102261
#	117818
#	131497
#	141599
#	154633
#	164163
#	176550
#	189328
#
# Disc length: 2689 seconds
#
# Revision: 1
# Processed by: cddbd v1.5.2PL0 Copyright (c) Steve Scherf et al.
# Submitted via: audiograbber 1.83.01
#
DISCID=cc0a7f0f
DTITLE=Chartbuster - CBES450-01
DYEAR=2003
DGENRE=Karaoke
TTITLE0=Hank Williams - Lovesick Blues
TTITLE1=Pee Wee King - Tennessee Waltz
TTITLE2=Roy Rogers - Happy Trails
TTITLE3=Lefty Frizzell - If You've Got The Money, I've Got The Time
TTITLE4=Hank Williams - Hey Good Lookin
TTITLE5=Kitty Wells - It Wasnt God Who Made Honky Tonk Angels
TTITLE6=Hank Williams - Jambalaya On The Bayou
TTITLE7=Hank Williams - Kaw-Liga
TTITLE8=Hank Williams - Your Cheatin Heart
TTITLE9=Tennessee Ernie Ford - Sixteen Tons
TTITLE10=Patsy Cline - Crazy
TTITLE11=Patsy Cline - Walkin After Midnight
TTITLE12=Sonny James - Young Love
TTITLE13=Marty Robbins - White Sport Coat And A Pink Carnation
TTITLE14=Johnny Horton - Battle Of New Orleans
EXTD=
EXTT0=
EXTT1=
EXTT2=
EXTT3=
EXTT4=
EXTT5=
EXTT6=
EXTT7=
EXTT8=
EXTT9=
EXTT10=
EXTT11=
EXTT12=
EXTT13=
EXTT14=
PLAYORDER=
